# xmcd
#
# Track frame offsets:
#       150
#       15167
#       31205
#       47695
#       61812
#       78070
#       91225
#       106442
#       129295
#       147525
#       158892
#       172275
#       193247
#       210942
#
# Disc length: 3071 seconds
#
# Revision: 0
# Processed by: cddbd v1.5.2PL0 Copyright (c) Steve Scherf et al.
# Submitted via: CD-DA_X-Tractor v0.24
#
DISCID=b00bfd0e
DTITLE=Various Artist - Dutch Treat
DYEAR=2001
DGENRE=Dutch Country
TTITLE0=Desperado - I Always Told You The Truth
TTITLE1=Savannah - Habits Of The Heart
TTITLE2=Ruud Hermans and Chip Taylor - Farmer's Song
TTITLE3=Texas Renegade - Exit 109
TTITLE4=Liz Meyer and Mark Cosgrove - Right Way To Do The Right Thing
TTITLE5=4 Wheel Drive - Dream
TTITLE6=Cash On Delivery - Love Me A Little Bit Longer
TTITLE7=J.W. Roy and Ray Wylie Hubbard - There Are Some Days
TTITLE8=Ruud Hermans - Rose Of My Heart
TTITLE9=4 Wheel Drive - Four Wheel Drive
TTITLE10=Savannah - You're Gonna Love Me One Day
TTITLE11=J.W. Roy And The One Night Band - The Messenger
TTITLE12=Texas Renegade - England To Texas
TTITLE13=Desperado and Jony de Boer - Rust
EXTD=
EXTT0=
EXTT1=
EXTT2=
EXTT3=
EXTT4=
EXTT5=
EXTT6=
EXTT7=
EXTT8=
EXTT9=
EXTT10=
EXTT11=
EXTT12=
EXTT13=
PLAYORDER=
